<svg
  xmlns="http://www.w3.org/2000/svg"
  viewBox="0 0 50 50"
  width="24"
  height="24"
>
  <path d="M7.402,32.471c-3.353-3.038-5.84-7.021-6.898-11.503c-0.777-3.291-0.424-5.119-0.424-5.119	C0.734,8.485,5.936,2.306,13.159,2.306c4.51,0,8.271,2.369,10.555,5.966l-0.02-0.013L16.26,19.16l14.487,1.932L19.355,31.535	l8.447,5.279l-3.626,10.879L7.402,32.471z M49.496,20.97c-1.058,4.482-3.545,8.464-6.898,11.502L26.6,46.745l3.597-10.792	l-7.553-4.721l12.608-11.557L19.74,17.608l5.362-7.864c0.051-0.037,0.1-0.079,0.132-0.143c2.181-4.334,6.56-7.294,11.606-7.294	c7.223,0,12.425,6.179,13.079,13.543C49.92,15.85,50.273,17.679,49.496,20.97z" />
</svg>
