<svg enable-background="new 0 0 333.668 333.668" version="1.1" viewBox="0 0 333.668 333.668" xml:space="preserve" 
	xmlns="http://www.w3.org/2000/svg">
	<path d="m295.1 298.65h-256.54c-21.266 0-38.561-17.295-38.561-38.561v-156.38c0-21.266 17.295-38.561 38.561-38.561h52.347l4.582-15.457c1.87-8.458 9.602-14.666 18.696-14.666h105.3c8.837 0 16.658 6.176 18.728 14.743l0.122 0.527 4.177 14.852h52.597c21.266 0 38.561 17.295 38.561 38.561v156.38c-6e-3 21.268-17.307 38.563-38.567 38.563zm-256.54-220.65c-14.178 0-25.707 11.53-25.707 25.707v156.38c0 14.178 11.53 25.707 25.707 25.707h256.54c14.178 0 25.707-11.53 25.707-25.707v-156.38c0-14.178-11.53-25.707-25.707-25.707h-62.327l-7.037-25.097c-0.649-2.918-3.278-5.032-6.26-5.032h-105.3c-3.027 0-5.598 2.069-6.26 5.039l-7.429 25.09h-61.929zm128.28 181.8c-44.981 0-81.576-36.588-81.576-81.563 0-44.981 36.594-81.569 81.576-81.569 44.969 0 81.557 36.594 81.557 81.569-1e-3 44.969-36.589 81.563-81.557 81.563zm0-150.28c-37.893 0-68.722 30.823-68.722 68.716s30.83 68.709 68.722 68.709c37.886 0 68.703-30.823 68.703-68.709-1e-3 -37.893-30.824-68.716-68.703-68.716zm119.96-7.661c-6.555 0-11.858 5.315-11.858 11.858 0 6.549 5.302 11.857 11.858 11.857 6.549 0 11.851-5.309 11.851-11.857-6e-3 -6.543-5.309-11.858-11.851-11.858z" fill="#fff" />
</svg>
